<svg width="15" height="24" viewBox="0 0 15 24" fill="none" xmlns="http://www.w3.org/2000/svg">
  <path
    d="M10.5 4.37036V15.241H4.5V4.37036H10.5ZM12.75 0.0220947H2.25C1.00781 0.0220947 0 0.995925 0 2.19623V21.0387C0 22.239 1.00781 23.2128 2.25 23.2128H12.75C13.9922 23.2128 15 22.239 15 21.0387V2.19623C15 0.995925 13.9922 0.0220947 12.75 0.0220947ZM2.25 21.7634C1.8375 21.7634 1.5 21.4373 1.5 21.0387V2.19623C1.5 1.79764 1.8375 1.47152 2.25 1.47152H12.75C13.1625 1.47152 13.5 1.79764 13.5 2.19623V21.0387C13.5 21.4373 13.1625 21.7634 12.75 21.7634H2.25ZM11.4375 2.92094H3.5625C3.25312 2.92094 3 3.16553 3 3.46447V16.1469C3 16.4459 3.25312 16.6904 3.5625 16.6904H11.4375C11.7469 16.6904 12 16.4459 12 16.1469V3.46447C12 3.16553 11.7469 2.92094 11.4375 2.92094ZM9.1875 18.8646H5.8125C5.50313 18.8646 5.25 19.1092 5.25 19.4081V19.7705C5.25 20.0694 5.50313 20.314 5.8125 20.314H9.1875C9.49687 20.314 9.75 20.0694 9.75 19.7705V19.4081C9.75 19.1092 9.49687 18.8646 9.1875 18.8646Z"
    fill="white" />
</svg>