<svg width="17" height="23" viewBox="0 0 17 23" fill="none" xmlns="http://www.w3.org/2000/svg">
  <path
    d="M8.5 4.80674C6.15652 4.80674 4.25 6.67607 4.25 8.97383C4.25 11.2716 6.15652 13.1409 8.5 13.1409C10.8435 13.1409 12.75 11.2716 12.75 8.97383C12.75 6.67607 10.8435 4.80674 8.5 4.80674ZM8.5 11.7519C6.93768 11.7519 5.66667 10.5057 5.66667 8.97383C5.66667 7.44199 6.93768 6.19577 8.5 6.19577C10.0623 6.19577 11.3333 7.44199 11.3333 8.97383C11.3333 10.5057 10.0623 11.7519 8.5 11.7519ZM8.5 0.639648C3.80556 0.639648 0 4.37097 0 8.97383C0 12.3341 1.19398 13.2725 7.62645 22.4157C8.04853 23.0135 8.95143 23.0136 9.3736 22.4157C15.806 13.2725 17 12.3341 17 8.97383C17 4.37097 13.1944 0.639648 8.5 0.639648ZM8.5 21.2117C2.33329 12.4676 1.41667 11.7733 1.41667 8.97383C1.41667 7.11869 2.15347 5.37464 3.49133 4.06287C4.8292 2.7511 6.60795 2.02868 8.5 2.02868C10.392 2.02868 12.1708 2.7511 13.5087 4.06287C14.8465 5.37464 15.5833 7.11869 15.5833 8.97383C15.5833 11.7732 14.6673 12.4668 8.5 21.2117Z"
    fill="white" />
</svg>